name rise35.5848peak51.9257fall54.8793.mot
datacolumns 19
datarows 12
range 10.95994900000000 10.97828900000000
endheader
time	ground_force1_vx	ground_force1_vy	ground_force1_vz	ground_force1_px	ground_force1_py	ground_force1_pz	ground_force2_vx	ground_force2_vy	ground_force2_vz	ground_force2_px	ground_force2_py	ground_force2_pz	ground_torque1_x	ground_torque1_y	ground_torque1_z	ground_torque2_x	ground_torque2_y	ground_torque2_z	
10.95994900000000	51.61081900000000	799.77579300000002	60.16499700000000	0.29548100000000	0.00000000000000	0.10782300000000	0.00000000000000	0.00000000000000	0.00000000000000	0.00000000000000	0.00000000000000	0.00000000000000	0.00000000000000	24.70302600000000	0.00000000000000	0.00000000000000	0.00000000000000	0.00000000000000	
10.96161800000000	50.77611800000000	801.29833399999995	60.26267700000000	0.29431100000000	0.00000000000000	0.10785700000000	0.00000000000000	0.00000000000000	0.00000000000000	0.00000000000000	0.00000000000000	0.00000000000000	0.00000000000000	24.76653800000000	0.00000000000000	0.00000000000000	0.00000000000000	0.00000000000000	
10.96329700000000	49.94257400000000	802.63935300000003	60.35257800000000	0.29313600000000	0.00000000000000	0.10789400000000	0.00000000000000	0.00000000000000	0.00000000000000	0.00000000000000	0.00000000000000	0.00000000000000	0.00000000000000	24.82528100000000	0.00000000000000	0.00000000000000	0.00000000000000	0.00000000000000	
10.96495800000000	49.11098500000000	803.80069500000002	60.43440500000000	0.29195600000000	0.00000000000000	0.10793100000000	0.00000000000000	0.00000000000000	0.00000000000000	0.00000000000000	0.00000000000000	0.00000000000000	0.00000000000000	24.87901000000000	0.00000000000000	0.00000000000000	0.00000000000000	0.00000000000000	
10.96662500000000	48.28208700000000	804.78446499999995	60.50782600000000	0.29076900000000	0.00000000000000	0.10797100000000	0.00000000000000	0.00000000000000	0.00000000000000	0.00000000000000	0.00000000000000	0.00000000000000	0.00000000000000	24.92747000000000	0.00000000000000	0.00000000000000	0.00000000000000	0.00000000000000	
10.96830000000000	47.45656100000000	805.59303000000000	60.57248100000000	0.28957500000000	0.00000000000000	0.10801200000000	0.00000000000000	0.00000000000000	0.00000000000000	0.00000000000000	0.00000000000000	0.00000000000000	0.00000000000000	24.97040100000000	0.00000000000000	0.00000000000000	0.00000000000000	0.00000000000000	
10.96995300000000	46.63503000000000	806.22901700000000	60.62798200000000	0.28837400000000	0.00000000000000	0.10805400000000	0.00000000000000	0.00000000000000	0.00000000000000	0.00000000000000	0.00000000000000	0.00000000000000	0.00000000000000	25.00753700000000	0.00000000000000	0.00000000000000	0.00000000000000	0.00000000000000	
10.97162100000000	45.81806500000000	806.69530099999997	60.67392200000000	0.28716600000000	0.00000000000000	0.10809800000000	0.00000000000000	0.00000000000000	0.00000000000000	0.00000000000000	0.00000000000000	0.00000000000000	0.00000000000000	25.03861200000000	0.00000000000000	0.00000000000000	0.00000000000000	0.00000000000000	
10.97328700000000	45.00618400000000	806.99500699999999	60.70987700000000	0.28594900000000	0.00000000000000	0.10814400000000	0.00000000000000	0.00000000000000	0.00000000000000	0.00000000000000	0.00000000000000	0.00000000000000	0.00000000000000	25.06336300000000	0.00000000000000	0.00000000000000	0.00000000000000	0.00000000000000	
10.97495500000000	44.19985900000000	807.13149999999996	60.73540800000000	0.28472500000000	0.00000000000000	0.10819100000000	0.00000000000000	0.00000000000000	0.00000000000000	0.00000000000000	0.00000000000000	0.00000000000000	0.00000000000000	25.08152700000000	0.00000000000000	0.00000000000000	0.00000000000000	0.00000000000000	
10.97661700000000	43.39951200000000	807.10837900000001	60.75007500000000	0.28349300000000	0.00000000000000	0.10823900000000	0.00000000000000	0.00000000000000	0.00000000000000	0.00000000000000	0.00000000000000	0.00000000000000	0.00000000000000	25.09285200000000	0.00000000000000	0.00000000000000	0.00000000000000	0.00000000000000	
10.97828900000000	42.60552400000000	806.92946600000005	60.75343100000000	0.28225200000000	0.00000000000000	0.10828900000000	0.00000000000000	0.00000000000000	0.00000000000000	0.00000000000000	0.00000000000000	0.00000000000000	0.00000000000000	25.09709300000000	0.00000000000000	0.00000000000000	0.00000000000000	0.00000000000000	
